<?xml version="1.0" standalone="no"?>
<!DOCTYPE svg PUBLIC "-//W3C//DTD SVG 20010904//EN"
 "http://www.w3.org/TR/2001/REC-SVG-20010904/DTD/svg10.dtd">
<svg version="1.0" xmlns="http://www.w3.org/2000/svg"
 width="1200.000000pt" height="1200.000000pt" viewBox="0 0 1200.000000 1200.000000"
 preserveAspectRatio="xMidYMid meet">
<metadata>
Created by potrace 1.11, written by Peter Selinger 2001-2013
</metadata>
<g transform="translate(0.000000,1200.000000) scale(0.100000,-0.100000)"
fill="#000000" stroke="none">
<path d="M0 6000 l0 -6000 6000 0 6000 0 0 6000 0 6000 -6000 0 -6000 0 0
-6000z m6334 3365 c495 -52 957 -206 1384 -459 409 -243 807 -620 1067 -1013
81 -121 215 -351 215 -369 0 -13 -68 -46 -80 -39 -4 3 -32 49 -60 103 -153
286 -400 602 -655 835 -512 468 -1140 757 -1835 844 -185 23 -586 23 -765 -1
-395 -51 -717 -147 -1060 -316 -259 -127 -498 -285 -700 -460 l-70 -61 -27 31
c-16 16 -28 34 -28 39 0 12 158 145 278 234 194 143 485 307 715 401 285 117
649 206 962 235 152 14 509 12 659 -4z m-49 -406 c1234 -120 2271 -1014 2575
-2219 57 -227 79 -386 86 -635 16 -497 -80 -948 -296 -1390 -294 -602 -763
-1071 -1365 -1365 -280 -137 -559 -223 -875 -271 -133 -20 -193 -24 -420 -24
-311 0 -460 18 -730 85 -477 120 -917 359 -1285 699 -1028 948 -1248 2500
-525 3701 426 708 1134 1209 1945 1375 296 60 580 74 890 44z m-2925 -980 c0
-5 -33 -57 -74 -116 -535 -784 -704 -1740 -471 -2658 146 -577 437 -1088 860
-1510 165 -166 306 -281 505 -414 141 -94 411 -238 555 -296 39 -16 72 -30 73
-31 8 -6 -21 -76 -33 -80 -29 -12 -357 146 -550 264 -302 186 -627 469 -843
734 -401 493 -646 1060 -739 1708 -25 178 -25 681 0 860 80 565 277 1073 583
1506 l66 93 34 -26 c19 -14 34 -29 34 -34z m5915 -1217 c116 -518 112 -1024
-10 -1537 -293 -1228 -1262 -2197 -2490 -2490 -426 -102 -838 -121 -1278 -58
l-119 16 7 46 c4 25 8 47 9 48 1 1 40 -4 86 -11 252 -41 701 -46 943 -12 605
87 1142 317 1617 694 122 98 404 380 502 502 377 475 607 1012 694 1617 21
149 30 569 15 730 -15 153 -42 319 -78 468 -14 61 -26 116 -27 124 -1 8 16 19
39 25 33 10 42 10 48 -1 5 -8 23 -80 42 -161z"/>
<path d="M5785 8874 c-466 -46 -860 -165 -1213 -368 -796 -458 -1308 -1227
-1434 -2156 -17 -126 -17 -546 0 -670 78 -570 272 -1033 612 -1460 265 -332
586 -589 975 -780 413 -203 802 -292 1270 -292 288 0 514 31 785 108 928 263
1682 1009 1955 1932 359 1218 -106 2505 -1159 3211 -360 242 -761 392 -1216
457 -100 14 -490 26 -575 18z m1291 -1057 l24 -28 0 -730 c0 -504 -3 -737 -11
-751 -24 -44 -56 -48 -439 -48 l-360 0 0 -70 0 -70 86 0 c144 0 192 -41 202
-171 l5 -69 -583 0 -583 0 5 69 c10 130 58 171 202 171 l86 0 0 70 0 70 -360
0 c-383 0 -415 4 -439 48 -8 14 -11 246 -11 749 0 791 -2 761 54 783 11 5 487
8 1059 7 l1039 -2 24 -28z m-1676 -2659 l0 -113 20 32 c24 41 48 53 103 53 55
0 93 -27 107 -78 5 -20 10 -90 10 -154 l0 -118 -40 0 -40 0 0 121 c0 66 -5
129 -10 140 -16 30 -84 26 -114 -6 -29 -31 -36 -64 -36 -171 l0 -84 -40 0 -40
0 0 238 c0 131 3 242 7 245 3 4 21 7 40 7 l33 0 0 -112z m488 -100 l2 -208
115 0 115 0 0 -35 0 -35 -155 0 -155 0 0 246 0 245 38 -3 37 -3 3 -207z m1202
-33 l0 -245 -39 0 c-22 0 -41 5 -43 12 -3 8 -11 7 -28 -5 -35 -24 -100 -22
-140 6 -55 37 -74 70 -78 142 -7 115 53 195 147 195 23 0 55 -7 71 -15 l30
-16 0 51 0 50 -35 0 c-32 0 -35 3 -35 28 0 16 3 32 7 35 3 4 37 7 75 7 l68 0
0 -245z m250 141 l0 -104 34 34 c29 29 41 34 81 34 99 0 115 -31 115 -215 l0
-135 -35 0 -35 0 0 113 c0 142 -9 162 -70 162 -39 0 -47 -4 -67 -34 -20 -30
-23 -46 -23 -137 l0 -104 -40 0 -40 0 0 245 0 245 40 0 40 0 0 -104z m-3360
-171 c28 -75 51 -124 54 -115 3 8 23 67 44 130 l39 115 41 3 c23 2 42 1 42 -1
0 -2 -36 -101 -79 -222 -52 -142 -88 -226 -104 -242 -41 -42 -157 -44 -157 -4
0 41 11 52 45 45 39 -7 75 21 75 59 0 12 -27 93 -60 181 -33 87 -60 165 -60
173 0 10 10 13 36 11 l37 -3 47 -130z m652 97 l33 -32 3 -140 4 -140 -41 0
c-35 0 -41 3 -41 20 0 20 0 20 -29 -1 -31 -23 -104 -35 -146 -25 -68 17 -98
104 -54 160 31 40 74 57 155 63 63 5 74 9 74 24 0 41 -107 56 -169 24 -30 -15
-31 -15 -46 16 -9 17 -15 33 -12 35 18 19 93 33 159 31 73 -2 80 -4 110 -35z
m468 22 c46 -18 44 -15 28 -49 -9 -21 -16 -25 -32 -19 -12 4 -53 9 -92 11 -55
4 -73 1 -83 -11 -22 -26 2 -43 77 -55 94 -16 130 -29 147 -54 18 -25 20 -80 4
-109 -28 -51 -155 -73 -255 -43 -75 23 -79 27 -60 64 l17 31 32 -17 c18 -9 64
-18 102 -21 60 -4 72 -2 88 15 24 28 8 39 -84 58 -41 8 -87 20 -102 27 -28 11
-57 53 -57 83 0 29 32 72 64 88 42 21 154 21 206 1z m1440 1 c54 -28 60 -46
60 -197 l0 -138 -35 0 c-29 0 -35 4 -35 21 0 20 0 20 -32 -3 -27 -19 -46 -23
-101 -23 -63 0 -71 2 -93 28 -33 39 -40 73 -21 113 23 47 84 76 175 82 71 5
82 11 64 40 -20 31 -125 32 -181 3 -16 -9 -21 -6 -31 20 -15 35 -14 37 37 54
52 19 157 19 193 0z m1448 1 c62 -32 67 -46 70 -197 l4 -139 -41 0 c-35 0 -41
3 -41 21 0 20 0 20 -32 -2 -41 -30 -123 -37 -166 -15 -37 19 -53 45 -54 87 -2
74 62 119 180 127 75 5 88 15 56 46 -23 23 -88 25 -153 4 -29 -9 -36 -8 -48 8
-7 10 -13 23 -13 30 0 35 184 58 238 30z"/>
<path d="M4990 7200 l0 -550 1010 0 1010 0 0 550 0 550 -1010 0 -1010 0 0
-550z"/>
<path d="M4990 6455 l0 -95 1010 0 1010 0 0 95 0 95 -1010 0 -1010 0 0 -95z
m1870 0 l0 -45 -45 0 -45 0 0 45 0 45 45 0 45 0 0 -45z"/>
<path d="M5810 6190 l0 -70 190 0 190 0 0 70 0 70 -190 0 -190 0 0 -70z"/>
<path d="M5532 6008 c-7 -7 -12 -16 -12 -20 0 -4 216 -8 480 -8 264 0 480 4
480 8 0 30 -28 32 -480 32 -341 0 -459 -3 -468 -12z"/>
<path d="M6871 5041 c-27 -27 -41 -84 -30 -123 19 -68 74 -94 143 -68 25 9 26
12 26 99 0 79 -2 92 -19 101 -33 17 -99 12 -120 -9z"/>
<path d="M4445 4918 c-37 -21 -43 -39 -19 -62 32 -32 142 -11 158 29 15 40 8
45 -56 45 -35 0 -72 -6 -83 -12z"/>
<path d="M6380 4917 c-14 -7 -26 -20 -28 -30 -6 -31 17 -47 70 -47 41 0 54 5
79 29 47 48 40 61 -33 61 -35 0 -74 -6 -88 -13z"/>
<path d="M7833 4920 c-12 -5 -24 -19 -28 -31 -10 -30 17 -49 71 -49 48 0 104
38 104 71 0 17 -7 19 -62 18 -35 0 -73 -4 -85 -9z"/>
</g>
</svg>
